<svg id="SvgjsSvg1006" width="1135" height="2024" xmlns="http://www.w3.org/2000/svg" version="1.1" xmlns:xlink="http://www.w3.org/1999/xlink" xmlns:svgjs="http://svgjs.com/svgjs"><defs id="SvgjsDefs1007"><pattern patternUnits="userSpaceOnUse" id="pattern_mark_0" width="300" height="300"><text x="150" y="100" fill="rgba(229,229,229,0.8)" font-size="18" transform="rotate(-45, 150, 150)" style="dominant-baseline: middle; text-anchor: middle;"></text></pattern><pattern patternUnits="userSpaceOnUse" id="pattern_mark_1" width="300" height="300"><text x="150" y="200" fill="rgba(229,229,229,0.8)" font-size="18" transform="rotate(-45, 150, 150)" style="dominant-baseline: middle; text-anchor: middle;"></text></pattern><marker id="SvgjsMarker1119" markerWidth="14" markerHeight="10" refX="10" refY="5" viewBox="0 0 14 10" orient="auto" markerUnits="userSpaceOnUse" stroke-dasharray="0,0"><path id="SvgjsPath1120" d="M0,0 L14,5 L0,10 L0,0" fill="#323232" stroke="#323232" stroke-width="1"></path></marker><marker id="SvgjsMarker1129" markerWidth="14" markerHeight="10" refX="10" refY="5" viewBox="0 0 14 10" orient="auto" markerUnits="userSpaceOnUse" stroke-dasharray="0,0"><path id="SvgjsPath1130" d="M0,0 L14,5 L0,10 L0,0" fill="#323232" stroke="#323232" stroke-width="1"></path></marker><marker id="SvgjsMarker1143" markerWidth="14" markerHeight="10" refX="10" refY="5" viewBox="0 0 14 10" orient="auto" markerUnits="userSpaceOnUse" stroke-dasharray="0,0"><path id="SvgjsPath1144" d="M0,0 L14,5 L0,10 L0,0" fill="#323232" stroke="#323232" stroke-width="1"></path></marker><marker id="SvgjsMarker1151" markerWidth="14" markerHeight="10" refX="10" refY="5" viewBox="0 0 14 10" orient="auto" markerUnits="userSpaceOnUse" stroke-dasharray="0,0"><path id="SvgjsPath1152" d="M0,0 L14,5 L0,10 L0,0" fill="#323232" stroke="#323232" stroke-width="1"></path></marker><marker id="SvgjsMarker1187" markerWidth="14" markerHeight="10" refX="10" refY="5" viewBox="0 0 14 10" orient="auto" markerUnits="userSpaceOnUse" stroke-dasharray="0,0"><path id="SvgjsPath1188" d="M0,0 L14,5 L0,10 L0,0" fill="#323232" stroke="#323232" stroke-width="1"></path></marker><marker id="SvgjsMarker1195" markerWidth="14" markerHeight="10" refX="10" refY="5" viewBox="0 0 14 10" orient="auto" markerUnits="userSpaceOnUse" stroke-dasharray="0,0"><path id="SvgjsPath1196" d="M0,0 L14,5 L0,10 L0,0" fill="#323232" stroke="#323232" stroke-width="1"></path></marker><marker id="SvgjsMarker1203" markerWidth="14" markerHeight="10" refX="10" refY="5" viewBox="0 0 14 10" orient="auto" markerUnits="userSpaceOnUse" stroke-dasharray="0,0"><path id="SvgjsPath1204" d="M0,0 L14,5 L0,10 L0,0" fill="#323232" stroke="#323232" stroke-width="1"></path></marker><marker id="SvgjsMarker1211" markerWidth="14" markerHeight="10" refX="10" refY="5" viewBox="0 0 14 10" orient="auto" markerUnits="userSpaceOnUse" stroke-dasharray="0,0"><path id="SvgjsPath1212" d="M0,0 L14,5 L0,10 L0,0" fill="#323232" stroke="#323232" stroke-width="1"></path></marker><marker id="SvgjsMarker1219" markerWidth="14" markerHeight="10" refX="10" refY="5" viewBox="0 0 14 10" orient="auto" markerUnits="userSpaceOnUse" stroke-dasharray="0,0"><path id="SvgjsPath1220" d="M0,0 L14,5 L0,10 L0,0" fill="#323232" stroke="#323232" stroke-width="1"></path></marker><marker id="SvgjsMarker1235" markerWidth="14" markerHeight="10" refX="10" refY="5" viewBox="0 0 14 10" orient="auto" markerUnits="userSpaceOnUse" stroke-dasharray="0,0"><path id="SvgjsPath1236" d="M0,0 L14,5 L0,10 L0,0" fill="#323232" stroke="#323232" stroke-width="1"></path></marker><marker id="SvgjsMarker1245" markerWidth="14" markerHeight="10" refX="10" refY="5" viewBox="0 0 14 10" orient="auto" markerUnits="userSpaceOnUse" stroke-dasharray="0,0"><path id="SvgjsPath1246" d="M0,0 L14,5 L0,10 L0,0" fill="#323232" stroke="#323232" stroke-width="1"></path></marker></defs><rect id="svgbackgroundid" width="1135" height="2024" fill="#ffffff"></rect><rect id="SvgjsRect1009" width="1135" height="2024" fill="url(#pattern_mark_0)"></rect><rect id="SvgjsRect1010" width="1135" height="2024" fill="url(#pattern_mark_1)"></rect><g id="SvgjsG1011" transform="translate(25.000015258789062,338)"><path id="SvgjsPath1012" d="M 0 4Q 0 0 4 0L 1081 0Q 1085 0 1085 4L 1085 1560Q 1085 1564 1081 1564L 4 1564Q 0 1564 0 1560Z" stroke="rgba(50,50,50,1)" stroke-width="2" fill-opacity="1" fill="#6ed464"></path><path id="SvgjsPath1013" d="M 0 25L 325.5 25L 333.5 17L 333.5 0" stroke="rgba(50,50,50,1)" stroke-width="2" fill-opacity="1" fill="#6ed464"></path><path id="SvgjsPath1014" d="M 0 0L 1085 0L 1085 1564L 0 1564Z" stroke="none" fill="none"></path><g id="SvgjsG1015"><text id="SvgjsText1016" font-family="Arial" text-anchor="start" font-size="13px" width="1065px" fill="#323232" font-weight="400" align="top" lineHeight="125%" anchor="start" family="Arial" size="13px" weight="400" font-style="" opacity="1" y="27.375" transform="rotate(0)"><tspan id="SvgjsTspan1017" dy="16" x="10"><tspan id="SvgjsTspan1018" style="text-decoration:;">[sharedInstance!=null &amp;&amp; args==null]</tspan></tspan></text></g><g id="SvgjsG1019"><text id="SvgjsText1020" font-family="Arial" text-anchor="start" font-size="13px" width="316px" fill="#323232" font-weight="400" align="middle" lineHeight="125%" anchor="start" family="Arial" size="13px" weight="400" font-style="" opacity="1" y="1.875" transform="rotate(0)"><tspan id="SvgjsTspan1021" dy="16" x="10"><tspan id="SvgjsTspan1022" style="text-decoration:;">Alt </tspan></tspan></text></g></g><g id="SvgjsG1023" transform="translate(41.00001525878906,1173)"><path id="SvgjsPath1024" d="M 0 4Q 0 0 4 0L 670 0Q 674 0 674 4L 674 216Q 674 220 670 220L 4 220Q 0 220 0 216Z" stroke="rgba(50,50,50,1)" stroke-width="2" fill-opacity="1" fill="#6ed464"></path><path id="SvgjsPath1025" d="M 0 25L 202.2 25L 210.2 17L 210.2 0" stroke="rgba(50,50,50,1)" stroke-width="2" fill-opacity="1" fill="#6ed464"></path><path id="SvgjsPath1026" d="M 0 0L 674 0L 674 220L 0 220Z" stroke="none" fill="none"></path><g id="SvgjsG1027"><text id="SvgjsText1028" font-family="Arial" text-anchor="start" font-size="13px" width="654px" fill="#323232" font-weight="400" align="top" lineHeight="125%" anchor="start" family="Arial" size="13px" weight="400" font-style="" opacity="1" y="27.375" transform="rotate(0)"><tspan id="SvgjsTspan1029" dy="16" x="10"><tspan id="SvgjsTspan1030" style="text-decoration:;">根据属性bean的属性(singleton,prototype,scope进行实例化)</tspan></tspan></text></g><g id="SvgjsG1031"><text id="SvgjsText1032" font-family="Arial" text-anchor="start" font-size="13px" width="193px" fill="#323232" font-weight="400" align="middle" lineHeight="125%" anchor="start" family="Arial" size="13px" weight="400" font-style="" opacity="1" y="1.875" transform="rotate(0)"><tspan id="SvgjsTspan1033" dy="16" x="10"><tspan id="SvgjsTspan1034" style="text-decoration:;">Opt</tspan></tspan></text></g></g><g id="SvgjsG1035" transform="translate(41.00001525878906,1475)"><path id="SvgjsPath1036" d="M 0 4Q 0 0 4 0L 921 0Q 925 0 925 4L 925 392Q 925 396 921 396L 4 396Q 0 396 0 392Z" stroke="rgba(50,50,50,1)" stroke-width="2" fill-opacity="1" fill="#6ed464"></path><path id="SvgjsPath1037" d="M 0 25L 277.5 25L 285.5 17L 285.5 0" stroke="rgba(50,50,50,1)" stroke-width="2" fill-opacity="1" fill="#6ed464"></path><path id="SvgjsPath1038" d="M 0 0L 925 0L 925 396L 0 396Z" stroke="none" fill="none"></path><g id="SvgjsG1039"><text id="SvgjsText1040" font-family="Arial" text-anchor="start" font-size="13px" width="905px" fill="#323232" font-weight="400" align="top" lineHeight="125%" anchor="start" family="Arial" size="13px" weight="400" font-style="" opacity="1" y="27.375" transform="rotate(0)"><tspan id="SvgjsTspan1041" dy="16" x="10"><tspan id="SvgjsTspan1042" style="text-decoration:;">[如果指定的需求类型不为空，需要进行类型转换，否则直接强制转换]</tspan></tspan></text></g><g id="SvgjsG1043"><text id="SvgjsText1044" font-family="Arial" text-anchor="start" font-size="13px" width="268px" fill="#323232" font-weight="400" align="middle" lineHeight="125%" anchor="start" family="Arial" size="13px" weight="400" font-style="" opacity="1" y="1.875" transform="rotate(0)"><tspan id="SvgjsTspan1045" dy="16" x="10"><tspan id="SvgjsTspan1046" style="text-decoration:;">Opt </tspan></tspan></text></g></g><g id="SvgjsG1047" transform="translate(41.00001525878906,617)"><path id="SvgjsPath1048" d="M 0 4Q 0 0 4 0L 894 0Q 898 0 898 4L 898 193Q 898 197 894 197L 4 197Q 0 197 0 193Z" stroke="rgba(50,50,50,1)" stroke-width="2" fill-opacity="1" fill="#6ed464"></path><path id="SvgjsPath1049" d="M 0 25L 269.4 25L 277.4 17L 277.4 0" stroke="rgba(50,50,50,1)" stroke-width="2" fill-opacity="1" fill="#6ed464"></path><path id="SvgjsPath1050" d="M 0 0L 898 0L 898 197L 0 197Z" stroke="none" fill="none"></path><g id="SvgjsG1051"><text id="SvgjsText1052" font-family="Arial" text-anchor="start" font-size="13px" width="878px" fill="#323232" font-weight="400" align="top" lineHeight="125%" anchor="start" family="Arial" size="13px" weight="400" font-style="" opacity="1" y="27.375" transform="rotate(0)"><tspan id="SvgjsTspan1053" dy="16" x="10"><tspan id="SvgjsTspan1054" style="text-decoration:;">parentBeanFactory!=null &amp;&amp; !containsBeanDefinition(beanName)</tspan></tspan></text></g><g id="SvgjsG1055"><text id="SvgjsText1056" font-family="Arial" text-anchor="start" font-size="13px" width="260px" fill="#323232" font-weight="400" align="middle" lineHeight="125%" anchor="start" family="Arial" size="13px" weight="400" font-style="" opacity="1" y="1.875" transform="rotate(0)"><tspan id="SvgjsTspan1057" dy="16" x="10"><tspan id="SvgjsTspan1058" style="text-decoration:;">Opt</tspan></tspan></text></g></g><g id="SvgjsG1059" transform="translate(104.00001525878906,25)"><path id="SvgjsPath1060" d="M 176 30L 176 1974" stroke-dasharray="3,4" stroke="rgba(50,50,50,1)" stroke-width="2" fill="none"></path><path id="SvgjsPath1061" d="M 0 0L 352 0L 352 30L 0 30Z" stroke="rgba(50,50,50,1)" stroke-width="2" fill-opacity="1" fill="#6ed464"></path><g id="SvgjsG1062"><text id="SvgjsText1063" font-family="Arial" text-anchor="middle" font-size="13px" width="332px" fill="#323232" font-weight="400" align="middle" lineHeight="125%" anchor="middle" family="Arial" size="13px" weight="400" font-style="" opacity="1" y="4.375" transform="rotate(0)"><tspan id="SvgjsTspan1064" dy="16" x="176"><tspan id="SvgjsTspan1065" style="text-decoration:;">Property:</tspan><tspan id="SvgjsTspan1066" style="text-decoration:;null"> AbstractBeanFactory</tspan></tspan></text></g></g><g id="SvgjsG1067" transform="translate(672.0000152587891,25)"><path id="SvgjsPath1068" d="M 153.5 30L 153.5 1974" stroke-dasharray="3,4" stroke="rgba(50,50,50,1)" stroke-width="2" fill="none"></path><path id="SvgjsPath1069" d="M 0 0L 307 0L 307 30L 0 30Z" stroke="rgba(50,50,50,1)" stroke-width="2" fill-opacity="1" fill="#6ed464"></path><g id="SvgjsG1070"><text id="SvgjsText1071" font-family="Arial" text-anchor="middle" font-size="13px" width="287px" fill="#323232" font-weight="400" align="middle" lineHeight="125%" anchor="middle" family="Arial" size="13px" weight="400" font-style="" opacity="1" y="4.375" transform="rotate(0)"><tspan id="SvgjsTspan1072" dy="16" x="153.5"><tspan id="SvgjsTspan1073" style="text-decoration:;">Property5:</tspan><tspan id="SvgjsTspan1074" style="text-decoration:;null"> TypeConverter</tspan></tspan></text></g></g><g id="SvgjsG1075" transform="translate(280.00001525878906,231)"><path id="SvgjsPath1076" d="M 0 4Q 0 0 4 0L 26 0Q 30 0 30 4L 30 56Q 30 60 26 60L 4 60Q 0 60 0 56L 0 4Z" stroke="rgba(50,50,50,1)" stroke-width="2" fill-opacity="1" fill="#6ed464"></path></g><g id="SvgjsG1077" transform="translate(485.00001525878906,221)"><path id="SvgjsPath1078" d="M 0 0L 84 0L 100 16L 100 70L 0 70L 0 0Z" stroke="rgba(50,50,50,1)" stroke-width="2" fill-opacity="1" fill="#6ed464"></path><path id="SvgjsPath1079" d="M 84 0L 84 16L 100 16" stroke="rgba(50,50,50,1)" stroke-width="2" fill-opacity="1" fill="#6ed464"></path><path id="SvgjsPath1080" d="M 0 0L 84 0L 100 16L 100 70L 0 70L 0 0Z" stroke="rgba(50,50,50,1)" stroke-width="2" fill="none"></path><g id="SvgjsG1081"><text id="SvgjsText1082" font-family="Arial" text-anchor="middle" font-size="13px" width="80px" fill="#323232" font-weight="400" align="middle" lineHeight="125%" anchor="middle" family="Arial" size="13px" weight="400" font-style="" opacity="1" y="7.875" transform="rotate(0)"><tspan id="SvgjsTspan1083" dy="16" x="50"><tspan id="SvgjsTspan1084" style="text-decoration:;">检查缓存中对</tspan></tspan><tspan id="SvgjsTspan1085" dy="16" x="50"><tspan id="SvgjsTspan1086" style="text-decoration:;">应的已经加载</tspan></tspan><tspan id="SvgjsTspan1087" dy="16" x="50"><tspan id="SvgjsTspan1088" style="text-decoration:;">的Bean</tspan></tspan></text></g></g><g id="SvgjsG1089" transform="translate(265.00001525878906,688)"><path id="SvgjsPath1090" d="M 0 4Q 0 0 4 0L 26 0Q 30 0 30 4L 30 56Q 30 60 26 60L 4 60Q 0 60 0 56L 0 4Z" stroke="rgba(50,50,50,1)" stroke-width="2" fill-opacity="1" fill="#6ed464"></path></g><g id="SvgjsG1091" transform="translate(488.00001525878906,685)"><path id="SvgjsPath1092" d="M 0 0L 253 0L 269 16L 269 66L 0 66L 0 0Z" stroke="rgba(50,50,50,1)" stroke-width="2" fill-opacity="1" fill="#6ed464"></path><path id="SvgjsPath1093" d="M 253 0L 253 16L 269 16" stroke="rgba(50,50,50,1)" stroke-width="2" fill-opacity="1" fill="#6ed464"></path><path id="SvgjsPath1094" d="M 0 0L 253 0L 269 16L 269 66L 0 66L 0 0Z" stroke="rgba(50,50,50,1)" stroke-width="2" fill="none"></path><g id="SvgjsG1095"><text id="SvgjsText1096" font-family="Arial" text-anchor="start" font-size="13px" width="249px" fill="#323232" font-weight="400" align="middle" lineHeight="125%" anchor="start" family="Arial" size="13px" weight="400" font-style="" opacity="1" y="5.875" transform="rotate(0)"><tspan id="SvgjsTspan1097" dy="16" x="10"><tspan id="SvgjsTspan1098" style="text-decoration:;">如果当前不存在beanName，调用方法</tspan></tspan><tspan id="SvgjsTspan1099" dy="16" x="10"><tspan id="SvgjsTspan1100" style="text-decoration:;">parentBeanFactory.getBean去父类工产中</tspan></tspan><tspan id="SvgjsTspan1101" dy="16" x="10"><tspan id="SvgjsTspan1102" style="text-decoration:;">查找，父类工厂通常为空</tspan></tspan></text></g></g><g id="SvgjsG1103" transform="translate(485.00001525878906,904)"><path id="SvgjsPath1104" d="M 0 0L 286 0L 302 16L 302 83L 0 83L 0 0Z" stroke="rgba(50,50,50,1)" stroke-width="2" fill-opacity="1" fill="#6ed464"></path><path id="SvgjsPath1105" d="M 286 0L 286 16L 302 16" stroke="rgba(50,50,50,1)" stroke-width="2" fill-opacity="1" fill="#6ed464"></path><path id="SvgjsPath1106" d="M 0 0L 286 0L 302 16L 302 83L 0 83L 0 0Z" stroke="rgba(50,50,50,1)" stroke-width="2" fill="none"></path><g id="SvgjsG1107"><text id="SvgjsText1108" font-family="Arial" text-anchor="start" font-size="13px" width="282px" fill="#323232" font-weight="400" align="middle" lineHeight="125%" anchor="start" family="Arial" size="13px" weight="400" font-style="" opacity="1" y="14.375" transform="rotate(0)"><tspan id="SvgjsTspan1109" dy="16" x="10"><tspan id="SvgjsTspan1110" style="text-decoration:;">将存储XML配置文件的GernericBeanDefition转换</tspan></tspan><tspan id="SvgjsTspan1111" dy="16" x="10"><tspan id="SvgjsTspan1112" style="text-decoration:;">为RootBeanDefinition，如果指定BeanName是子</tspan></tspan><tspan id="SvgjsTspan1113" dy="16" x="10"><tspan id="SvgjsTspan1114" style="text-decoration:;">Bean的话，同时会合并父类的相关属性Text</tspan></tspan></text></g></g><g id="SvgjsG1115"><path id="SvgjsPath1116" d="M310.98612720245205 1099.1660820115642L405.00001525878906 1115" stroke="#323232" stroke-width="2" fill="none"></path></g><g id="SvgjsG1117"><path id="SvgjsPath1118" d="M296.00001525878906 1778L553.6213356023487 1778L553.6213356023487 1774.7455844122717L808.6426559459084 1774.7455844122717" stroke="#323232" stroke-width="2" fill="none" marker-end="url(#SvgjsMarker1119)"></path><rect id="SvgjsRect1121" width="234" height="16" x="436.6213356023487" y="1769.6727922061357" fill="#ffffff"></rect><text id="SvgjsText1122" font-family="Arial" text-anchor="middle" font-size="13px" width="234px" fill="#323232" font-weight="400" align="top" lineHeight="16px" anchor="middle" family="Arial" size="13px" weight="400" font-style="" opacity="1" y="1767.0477922061357" transform="rotate(0)"><tspan id="SvgjsTspan1123" dy="16" x="553.6213356023487"><tspan id="SvgjsTspan1124" style="text-decoration:;">3: converIfNecessary(value,requireType)</tspan></tspan></text></g><g id="SvgjsG1125" transform="translate(810.5000152587891,1774)"><path id="SvgjsPath1126" d="M 0 4Q 0 0 4 0L 26 0Q 30 0 30 4L 30 56Q 30 60 26 60L 4 60Q 0 60 0 56L 0 4Z" stroke="rgba(50,50,50,1)" stroke-width="2" fill-opacity="1" fill="#6ed464"></path></g><g id="SvgjsG1127"><path id="SvgjsPath1128" d="M810.457471391656 1831.2792706909468L553.2287433252225 1831.2792706909468L553.2287433252225 1831L298.6000152587891 1831" stroke-dasharray="8,5" stroke="#323232" stroke-width="2" fill="none" marker-end="url(#SvgjsMarker1129)"></path><rect id="SvgjsRect1131" width="52" height="16" x="528.5287433252224" y="1823.1396353454734" fill="#ffffff"></rect><text id="SvgjsText1132" font-family="Arial" text-anchor="middle" font-size="13px" width="52px" fill="#323232" font-weight="400" align="top" lineHeight="16px" anchor="middle" family="Arial" size="13px" weight="400" font-style="" opacity="1" y="1820.5146353454734" transform="rotate(0)"><tspan id="SvgjsTspan1133" dy="16" x="554.5287433252224"><tspan id="SvgjsTspan1134" style="text-decoration:;">4: Object</tspan></tspan></text></g><g id="SvgjsG1135"><path id="SvgjsPath1136" d="M295.1809373964313 1950.973939570023L324.1809373964313 1950.973939570023L324.1809373964313 1985L280.00001525878906 1985L280.00001525878906 1984" stroke-dasharray="8,5" stroke="#323232" stroke-width="2" fill="none"></path><rect id="SvgjsRect1137" width="22" height="16" x="313.1809373964313" y="1968.0774308538325" fill="#ffffff"></rect><text id="SvgjsText1138" font-family="Arial" text-anchor="middle" font-size="13px" width="22px" fill="#323232" font-weight="400" align="top" lineHeight="16px" anchor="middle" family="Arial" size="13px" weight="400" font-style="" opacity="1" y="1965.4524308538325" transform="rotate(0)"><tspan id="SvgjsTspan1139" dy="16" x="324.1809373964313"><tspan id="SvgjsTspan1140" style="text-decoration:;">2: T</tspan></tspan></text></g><g id="SvgjsG1141"><path id="SvgjsPath1142" d="M296.00001525878906 179L339.5359136436513 179L339.5359136436513 232.8L313.13591364365135 232.8" stroke="#323232" stroke-width="2" fill="none" marker-end="url(#SvgjsMarker1143)"></path><rect id="SvgjsRect1145" width="98" height="16" x="290.5359136436514" y="189.33205080756892" fill="#ffffff"></rect><text id="SvgjsText1146" font-family="Arial" text-anchor="middle" font-size="13px" width="98px" fill="#323232" font-weight="400" align="top" lineHeight="16px" anchor="middle" family="Arial" size="13px" weight="400" font-style="" opacity="1" y="186.70705080756892" transform="rotate(0)"><tspan id="SvgjsTspan1147" dy="16" x="339.5359136436514"><tspan id="SvgjsTspan1148" style="text-decoration:;">1.1: getSingleton</tspan></tspan></text></g><g id="SvgjsG1149"><path id="SvgjsPath1150" d="M280.00001525878906 65L280.00001525878906 95L324.16979304319415 95L324.16979304319415 165.21393804843268L297.76979304319417 165.21393804843268" stroke="#323232" stroke-width="2" fill="none" marker-end="url(#SvgjsMarker1151)"></path><rect id="SvgjsRect1153" width="277" height="16" x="185.66979304319415" y="98.22208013201379" fill="#ffffff"></rect><text id="SvgjsText1154" font-family="Arial" text-anchor="middle" font-size="13px" width="277px" fill="#323232" font-weight="400" align="top" lineHeight="16px" anchor="middle" family="Arial" size="13px" weight="400" font-style="" opacity="1" y="95.59708013201379" transform="rotate(0)"><tspan id="SvgjsTspan1155" dy="16" x="324.16979304319415"><tspan id="SvgjsTspan1156" style="text-decoration:;">1:doGetBean(String,Class&lt;T&gt;,Object[],boolean)</tspan></tspan></text></g><g id="SvgjsG1157"><path id="SvgjsPath1158" d="M310.00001525878906 258L397.50001525878906 258L397.50001525878906 258L485.00001525878906 258" stroke="#323232" stroke-width="2" fill="none"></path></g><g id="SvgjsG1159"><path id="SvgjsPath1160" d="M310.00001525878906 491L485.00001525878906 525" stroke="#323232" stroke-width="2" fill="none"></path></g><g id="SvgjsG1161" transform="translate(485.00001525878906,489)"><path id="SvgjsPath1162" d="M 0 0L 259 0L 275 16L 275 91L 0 91L 0 0Z" stroke="rgba(50,50,50,1)" stroke-width="2" fill-opacity="1" fill="#6ed464"></path><path id="SvgjsPath1163" d="M 259 0L 259 16L 275 16" stroke="rgba(50,50,50,1)" stroke-width="2" fill-opacity="1" fill="#6ed464"></path><path id="SvgjsPath1164" d="M 0 0L 259 0L 275 16L 275 91L 0 91L 0 0Z" stroke="rgba(50,50,50,1)" stroke-width="2" fill="none"></path><g id="SvgjsG1165"><text id="SvgjsText1166" font-family="Arial" text-anchor="start" font-size="13px" width="255px" fill="#323232" font-weight="400" align="middle" lineHeight="125%" anchor="start" family="Arial" size="13px" weight="400" font-style="" opacity="1" y="18.375" transform="rotate(0)"><tspan id="SvgjsTspan1167" dy="16" x="10"><tspan id="SvgjsTspan1168" style="text-decoration:;">返回对应的实例，有时候存在诸如</tspan></tspan><tspan id="SvgjsTspan1169" dy="16" x="10"><tspan id="SvgjsTspan1170" style="text-decoration:;">BeanFactory的情况并不是直接返回实例本</tspan></tspan><tspan id="SvgjsTspan1171" dy="16" x="10"><tspan id="SvgjsTspan1172" style="text-decoration:;">身，而是返回指定方法返回的实例</tspan></tspan></text></g></g><g id="SvgjsG1173"><path id="SvgjsPath1174" d="M295.00001525878906 713L488.00001525878906 713" stroke="#323232" stroke-width="2" fill="none"></path></g><g id="SvgjsG1175"><path id="SvgjsPath1176" d="M311.00001525878906 943L485.00001525878906 943" stroke="#323232" stroke-width="2" fill="none"></path></g><g id="SvgjsG1177" transform="translate(397.00001525878906,1115)"><path id="SvgjsPath1178" d="M 0 0L 160 0L 160 40L 0 40Z" stroke="none" fill="none"></path><g id="SvgjsG1179"><text id="SvgjsText1180" font-family="Arial" text-anchor="middle" font-size="13px" width="160px" fill="#323232" font-weight="400" align="middle" lineHeight="125%" anchor="middle" family="Arial" size="13px" weight="400" font-style="" opacity="1" y="9.375" transform="rotate(0)"><tspan id="SvgjsTspan1181" dy="16" x="80"><tspan id="SvgjsTspan1182" style="text-decoration:;">递归调用，实例化依赖bean</tspan></tspan></text></g></g><g id="SvgjsG1183" transform="translate(265.00001525878906,164)"><path id="SvgjsPath1184" d="M 0 4Q 0 0 4 0L 26 0Q 30 0 30 4L 30 1788Q 30 1792 26 1792L 4 1792Q 0 1792 0 1788L 0 4Z" stroke="rgba(50,50,50,1)" stroke-width="2" fill-opacity="1" fill="#6ed464"></path></g><g id="SvgjsG1185"><path id="SvgjsPath1186" d="M310.5359136436513 289.2L339.5359136436513 289.2L339.5359136436513 326L298.6000152587891 326" stroke-dasharray="8,5" stroke="#323232" stroke-width="2" fill="none" marker-end="url(#SvgjsMarker1187)"></path><rect id="SvgjsRect1189" width="114" height="16" x="282.5359136436513" y="305.5679491924311" fill="#ffffff"></rect><text id="SvgjsText1190" font-family="Arial" text-anchor="middle" font-size="13px" width="114px" fill="#323232" font-weight="400" align="top" lineHeight="16px" anchor="middle" family="Arial" size="13px" weight="400" font-style="" opacity="1" y="302.9429491924311" transform="rotate(0)"><tspan id="SvgjsTspan1191" dy="16" x="339.5359136436513"><tspan id="SvgjsTspan1192" style="text-decoration:;">1.2: sharedInstance</tspan></tspan></text></g><g id="SvgjsG1193"><path id="SvgjsPath1194" d="M296.00001525878906 377L339.5359136436513 377L339.5359136436513 446L313.13591364365135 446" stroke="#323232" stroke-width="2" fill="none" marker-end="url(#SvgjsMarker1195)"></path><rect id="SvgjsRect1197" width="403" height="16" x="138.03591364365133" y="394.9320508075689" fill="#ffffff"></rect><text id="SvgjsText1198" font-family="Arial" text-anchor="middle" font-size="13px" width="403px" fill="#323232" font-weight="400" align="top" lineHeight="16px" anchor="middle" family="Arial" size="13px" weight="400" font-style="" opacity="1" y="392.3070508075689" transform="rotate(0)"><tspan id="SvgjsTspan1199" dy="16" x="339.5359136436513"><tspan id="SvgjsTspan1200" style="text-decoration:;">    1:getObjectForBeanInstance(Object,String,String,RootBeanDefinition)</tspan></tspan></text></g><g id="SvgjsG1201"><path id="SvgjsPath1202" d="M310.2339708156701 541.3572123903134L339.2339708156701 541.3572123903134L339.2339708156701 575L298.6000152587891 575" stroke-dasharray="8,5" stroke="#323232" stroke-width="2" fill="none" marker-end="url(#SvgjsMarker1203)"></path><rect id="SvgjsRect1205" width="43" height="16" x="317.7339708156701" y="555.9955839735971" fill="#ffffff"></rect><text id="SvgjsText1206" font-family="Arial" text-anchor="middle" font-size="13px" width="43px" fill="#323232" font-weight="400" align="top" lineHeight="16px" anchor="middle" family="Arial" size="13px" weight="400" font-style="" opacity="1" y="553.3705839735971" transform="rotate(0)"><tspan id="SvgjsTspan1207" dy="16" x="339.2339708156701"><tspan id="SvgjsTspan1208" style="text-decoration:;">2: bean</tspan></tspan></text></g><g id="SvgjsG1209"><path id="SvgjsPath1210" d="M296.00001525878906 847L338.9358374863132 847L338.9358374863132 894.5711504387461L312.5358374863132 894.5711504387461" stroke="#323232" stroke-width="2" fill="none" marker-end="url(#SvgjsMarker1211)"></path><rect id="SvgjsRect1213" width="244" height="16" x="216.93583748631318" y="854.5176641056107" fill="#ffffff"></rect><text id="SvgjsText1214" font-family="Arial" text-anchor="middle" font-size="13px" width="244px" fill="#323232" font-weight="400" align="top" lineHeight="16px" anchor="middle" family="Arial" size="13px" weight="400" font-style="" opacity="1" y="851.8926641056107" transform="rotate(0)"><tspan id="SvgjsTspan1215" dy="16" x="338.9358374863132"><tspan id="SvgjsTspan1216" style="text-decoration:;">1： getMergedLocalBeanDefinition(String)</tspan></tspan></text></g><g id="SvgjsG1217"><path id="SvgjsPath1218" d="M311.00001525878906 985L340.00001525878906 985L340.00001525878906 1028L298.6000152587891 1028" stroke-dasharray="8,5" stroke="#323232" stroke-width="2" fill="none" marker-end="url(#SvgjsMarker1219)"></path><rect id="SvgjsRect1221" width="165" height="16" x="257.50001525878906" y="1004.7" fill="#ffffff"></rect><text id="SvgjsText1222" font-family="Arial" text-anchor="middle" font-size="13px" width="165px" fill="#323232" font-weight="400" align="top" lineHeight="16px" anchor="middle" family="Arial" size="13px" weight="400" font-style="" opacity="1" y="1002.075" transform="rotate(0)"><tspan id="SvgjsTspan1223" dy="16" x="340.00001525878906"><tspan id="SvgjsTspan1224" style="text-decoration:;">2： mbd:RootBeanDefinition</tspan></tspan></text></g><g id="SvgjsG1225" transform="translate(280.00001525878906,1068)"><path id="SvgjsPath1226" d="M 0 4Q 0 0 4 0L 26 0Q 30 0 30 4L 30 56Q 30 60 26 60L 4 60Q 0 60 0 56L 0 4Z" stroke="rgba(50,50,50,1)" stroke-width="2" fill-opacity="1" fill="#6ed464"></path></g><g id="SvgjsG1227" transform="translate(280.00001525878906,893)"><path id="SvgjsPath1228" d="M 0 4Q 0 0 4 0L 26 0Q 30 0 30 4L 30 96Q 30 100 26 100L 4 100Q 0 100 0 96L 0 4Z" stroke="rgba(50,50,50,1)" stroke-width="2" fill-opacity="1" fill="#6ed464"></path></g><g id="SvgjsG1229" transform="translate(280.00001525878906,444)"><path id="SvgjsPath1230" d="M 0 4Q 0 0 4 0L 26 0Q 30 0 30 4L 30 96Q 30 100 26 100L 4 100Q 0 100 0 96L 0 4Z" stroke="rgba(50,50,50,1)" stroke-width="2" fill-opacity="1" fill="#6ed464"></path></g><g id="SvgjsG1231" transform="translate(280.00001525878906,1243)"><path id="SvgjsPath1232" d="M 0 4Q 0 0 4 0L 26 0Q 30 0 30 4L 30 96Q 30 100 26 100L 4 100Q 0 100 0 96L 0 4Z" stroke="rgba(50,50,50,1)" stroke-width="2" fill-opacity="1" fill="#6ed464"></path></g><g id="SvgjsG1233"><path id="SvgjsPath1234" d="M296.00001525878906 1556L339.46847632360584 1556L339.46847632360584 1597.1130913087036L313.06847632360586 1597.1130913087036" stroke="#323232" stroke-width="2" fill="none" marker-end="url(#SvgjsMarker1235)"></path><rect id="SvgjsRect1237" width="136" height="16" x="271.46847632360584" y="1560.0223151219434" fill="#ffffff"></rect><text id="SvgjsText1238" font-family="Arial" text-anchor="middle" font-size="13px" width="136px" fill="#323232" font-weight="400" align="top" lineHeight="16px" anchor="middle" family="Arial" size="13px" weight="400" font-style="" opacity="1" y="1557.3973151219434" transform="rotate(0)"><tspan id="SvgjsTspan1239" dy="16" x="339.46847632360584"><tspan id="SvgjsTspan1240" style="text-decoration:;">1： getTypeConverter()</tspan></tspan></text></g><g id="SvgjsG1241" transform="translate(280.00001525878906,1594)"><path id="SvgjsPath1242" d="M 0 4Q 0 0 4 0L 26 0Q 30 0 30 4L 30 96Q 30 100 26 100L 4 100Q 0 100 0 96L 0 4Z" stroke="rgba(50,50,50,1)" stroke-width="2" fill-opacity="1" fill="#6ed464"></path></g><g id="SvgjsG1243"><path id="SvgjsPath1244" d="M310.24124477564544 1689.6319194266973L339.24124477564544 1689.6319194266973L339.24124477564544 1737L298.6000152587891 1737" stroke-dasharray="8,5" stroke="#323232" stroke-width="2" fill="none" marker-end="url(#SvgjsMarker1245)"></path><rect id="SvgjsRect1247" width="118" height="16" x="280.24124477564544" y="1711.1365744717768" fill="#ffffff"></rect><text id="SvgjsText1248" font-family="Arial" text-anchor="middle" font-size="13px" width="118px" fill="#323232" font-weight="400" align="top" lineHeight="16px" anchor="middle" family="Arial" size="13px" weight="400" font-style="" opacity="1" y="1708.5115744717768" transform="rotate(0)"><tspan id="SvgjsTspan1249" dy="16" x="339.24124477564544"><tspan id="SvgjsTspan1250" style="text-decoration:;">2: getTypeConverter</tspan></tspan></text></g></svg>