<svg id="SvgjsSvg1006" width="1246.6363247958095" height="847.3068098588423" xmlns="http://www.w3.org/2000/svg" version="1.1" xmlns:xlink="http://www.w3.org/1999/xlink" xmlns:svgjs="http://svgjs.com/svgjs"><defs id="SvgjsDefs1007"><pattern patternUnits="userSpaceOnUse" id="pattern_mark_0" width="300" height="300"><text x="150" y="100" fill="rgba(229,229,229,0.8)" font-size="18" transform="rotate(-45, 150, 150)" style="dominant-baseline: middle; text-anchor: middle;"></text></pattern><pattern patternUnits="userSpaceOnUse" id="pattern_mark_1" width="300" height="300"><text x="150" y="200" fill="rgba(229,229,229,0.8)" font-size="18" transform="rotate(-45, 150, 150)" style="dominant-baseline: middle; text-anchor: middle;"></text></pattern><marker id="SvgjsMarker1050" markerWidth="14" markerHeight="10" refX="10" refY="5" viewBox="0 0 14 10" orient="auto" markerUnits="userSpaceOnUse" stroke-dasharray="0,0"><path id="SvgjsPath1051" d="M0,0 L14,5 L0,10 L0,0" fill="#323232" stroke="#323232" stroke-width="1"></path></marker><marker id="SvgjsMarker1060" markerWidth="14" markerHeight="10" refX="10" refY="5" viewBox="0 0 14 10" orient="auto" markerUnits="userSpaceOnUse" stroke-dasharray="0,0"><path id="SvgjsPath1061" d="M0,0 L14,5 L0,10 L0,0" fill="#323232" stroke="#323232" stroke-width="1"></path></marker><marker id="SvgjsMarker1068" markerWidth="14" markerHeight="10" refX="10" refY="5" viewBox="0 0 14 10" orient="auto" markerUnits="userSpaceOnUse" stroke-dasharray="0,0"><path id="SvgjsPath1069" d="M0,0 L14,5 L0,10 L0,0" fill="#323232" stroke="#323232" stroke-width="1"></path></marker><marker id="SvgjsMarker1076" markerWidth="14" markerHeight="10" refX="10" refY="5" viewBox="0 0 14 10" orient="auto" markerUnits="userSpaceOnUse" stroke-dasharray="0,0"><path id="SvgjsPath1077" d="M0,0 L14,5 L0,10 L0,0" fill="#323232" stroke="#323232" stroke-width="1"></path></marker><marker id="SvgjsMarker1088" markerWidth="14" markerHeight="10" refX="10" refY="5" viewBox="0 0 14 10" orient="auto" markerUnits="userSpaceOnUse" stroke-dasharray="0,0"><path id="SvgjsPath1089" d="M0,0 L14,5 L0,10 L0,0" fill="#323232" stroke="#323232" stroke-width="1"></path></marker><marker id="SvgjsMarker1096" markerWidth="14" markerHeight="10" refX="10" refY="5" viewBox="0 0 14 10" orient="auto" markerUnits="userSpaceOnUse" stroke-dasharray="0,0"><path id="SvgjsPath1097" d="M0,0 L14,5 L0,10 L0,0" fill="#323232" stroke="#323232" stroke-width="1"></path></marker><marker id="SvgjsMarker1104" markerWidth="14" markerHeight="10" refX="10" refY="5" viewBox="0 0 14 10" orient="auto" markerUnits="userSpaceOnUse" stroke-dasharray="0,0"><path id="SvgjsPath1105" d="M0,0 L14,5 L0,10 L0,0" fill="#323232" stroke="#323232" stroke-width="1"></path></marker><marker id="SvgjsMarker1114" markerWidth="14" markerHeight="10" refX="10" refY="5" viewBox="0 0 14 10" orient="auto" markerUnits="userSpaceOnUse" stroke-dasharray="0,0"><path id="SvgjsPath1115" d="M0,0 L14,5 L0,10 L0,0" fill="#323232" stroke="#323232" stroke-width="1"></path></marker><marker id="SvgjsMarker1122" markerWidth="14" markerHeight="10" refX="10" refY="5" viewBox="0 0 14 10" orient="auto" markerUnits="userSpaceOnUse" stroke-dasharray="0,0"><path id="SvgjsPath1123" d="M0,0 L14,5 L0,10 L0,0" fill="#323232" stroke="#323232" stroke-width="1"></path></marker><marker id="SvgjsMarker1132" markerWidth="14" markerHeight="10" refX="10" refY="5" viewBox="0 0 14 10" orient="auto" markerUnits="userSpaceOnUse" stroke-dasharray="0,0"><path id="SvgjsPath1133" d="M0,0 L14,5 L0,10 L0,0" fill="#323232" stroke="#323232" stroke-width="1"></path></marker><marker id="SvgjsMarker1142" markerWidth="14" markerHeight="10" refX="10" refY="5" viewBox="0 0 14 10" orient="auto" markerUnits="userSpaceOnUse" stroke-dasharray="0,0"><path id="SvgjsPath1143" d="M0,0 L14,5 L0,10 L0,0" fill="#323232" stroke="#323232" stroke-width="1"></path></marker><marker id="SvgjsMarker1150" markerWidth="14" markerHeight="10" refX="10" refY="5" viewBox="0 0 14 10" orient="auto" markerUnits="userSpaceOnUse" stroke-dasharray="0,0"><path id="SvgjsPath1151" d="M0,0 L14,5 L0,10 L0,0" fill="#323232" stroke="#323232" stroke-width="1"></path></marker><marker id="SvgjsMarker1158" markerWidth="14" markerHeight="10" refX="10" refY="5" viewBox="0 0 14 10" orient="auto" markerUnits="userSpaceOnUse" stroke-dasharray="0,0"><path id="SvgjsPath1159" d="M0,0 L14,5 L0,10 L0,0" fill="#323232" stroke="#323232" stroke-width="1"></path></marker><marker id="SvgjsMarker1166" markerWidth="14" markerHeight="10" refX="10" refY="5" viewBox="0 0 14 10" orient="auto" markerUnits="userSpaceOnUse" stroke-dasharray="0,0"><path id="SvgjsPath1167" d="M0,0 L14,5 L0,10 L0,0" fill="#323232" stroke="#323232" stroke-width="1"></path></marker></defs><rect id="svgbackgroundid" width="1246.6363247958095" height="847.3068098588423" fill="#ffffff"></rect><rect id="SvgjsRect1009" width="1246.6363247958095" height="847.3068098588423" fill="url(#pattern_mark_0)"></rect><rect id="SvgjsRect1010" width="1246.6363247958095" height="847.3068098588423" fill="url(#pattern_mark_1)"></rect><g id="SvgjsG1011" transform="translate(379.7499916770241,132.12499167702416)"><path id="SvgjsPath1012" d="M 0 4Q 0 0 4 0L 26 0Q 30 0 30 4L 30 617.875Q 30 621.875 26 621.875L 4 621.875Q 0 621.875 0 617.875L 0 4Z" stroke="rgba(50,50,50,1)" stroke-width="2" fill-opacity="1" fill="#6ed464"></path></g><g id="SvgjsG1013" transform="translate(24.99999167702415,64.12499167702416)"><path id="SvgjsPath1014" d="M 107 30L 107 757.875" stroke-dasharray="3,4" stroke="rgba(50,50,50,1)" stroke-width="2" fill="none"></path><path id="SvgjsPath1015" d="M 0 0L 214 0L 214 30L 0 30Z" stroke="rgba(50,50,50,1)" stroke-width="2" fill-opacity="1" fill="#6ed464"></path><g id="SvgjsG1016"><text id="SvgjsText1017" font-family="Arial" text-anchor="start" font-size="13px" width="194px" fill="#323232" font-weight="400" align="middle" lineHeight="125%" anchor="start" family="Arial" size="13px" weight="400" font-style="" opacity="1" y="4.375" transform="rotate(0)"><tspan id="SvgjsTspan1018" dy="16" x="10"><tspan id="SvgjsTspan1019" style="text-decoration:;">xmlBeanFactory:XmlBeanFactory</tspan></tspan></text></g></g><g id="SvgjsG1020" transform="translate(1057.9999916770241,64.12499167702416)"><path id="SvgjsPath1021" d="M 82 30L 82 757.875" stroke-dasharray="3,4" stroke="rgba(50,50,50,1)" stroke-width="2" fill="none"></path><path id="SvgjsPath1022" d="M 0 0L 164 0L 164 30L 0 30Z" stroke="rgba(50,50,50,1)" stroke-width="2" fill-opacity="1" fill="#6ed464"></path><g id="SvgjsG1023"><text id="SvgjsText1024" font-family="Arial" text-anchor="start" font-size="13px" width="144px" fill="#323232" font-weight="400" align="middle" lineHeight="125%" anchor="start" family="Arial" size="13px" weight="400" font-style="" opacity="1" y="4.375" transform="rotate(0)"><tspan id="SvgjsTspan1025" dy="16" x="10"><tspan id="SvgjsTspan1026" style="text-decoration:;">inputSource:InputSource</tspan></tspan></text></g></g><g id="SvgjsG1027" transform="translate(902.4999916770241,64.12499167702416)"><path id="SvgjsPath1028" d="M 65.75 30L 65.75 757.875" stroke-dasharray="3,4" stroke="rgba(50,50,50,1)" stroke-width="2" fill="none"></path><path id="SvgjsPath1029" d="M 0 0L 131.5 0L 131.5 30L 0 30Z" stroke="rgba(50,50,50,1)" stroke-width="2" fill-opacity="1" fill="#6ed464"></path><g id="SvgjsG1030"><text id="SvgjsText1031" font-family="Arial" text-anchor="start" font-size="13px" width="112px" fill="#323232" font-weight="400" align="middle" lineHeight="125%" anchor="start" family="Arial" size="13px" weight="400" font-style="" opacity="1" y="4.375" transform="rotate(0)"><tspan id="SvgjsTspan1032" dy="16" x="10"><tspan id="SvgjsTspan1033" style="text-decoration:;">resource:Resource</tspan></tspan></text></g></g><g id="SvgjsG1034" transform="translate(615.9999916770241,64.12499167702416)"><path id="SvgjsPath1035" d="M 124.75 30L 124.75 757.875" stroke-dasharray="3,4" stroke="rgba(50,50,50,1)" stroke-width="2" fill="none"></path><path id="SvgjsPath1036" d="M 0 0L 249.5 0L 249.5 30L 0 30Z" stroke="rgba(50,50,50,1)" stroke-width="2" fill-opacity="1" fill="#6ed464"></path><g id="SvgjsG1037"><text id="SvgjsText1038" font-family="Arial" text-anchor="start" font-size="13px" width="230px" fill="#323232" font-weight="400" align="middle" lineHeight="125%" anchor="start" family="Arial" size="13px" weight="400" font-style="" opacity="1" y="4.375" transform="rotate(0)"><tspan id="SvgjsTspan1039" dy="16" x="10"><tspan id="SvgjsTspan1040" style="text-decoration:;">encodedResource:EncodedResource</tspan></tspan></text></g></g><g id="SvgjsG1041" transform="translate(282.4999916770241,64.12499167702416)"><path id="SvgjsPath1042" d="M 112.25 30L 112.25 757.875" stroke-dasharray="3,4" stroke="rgba(50,50,50,1)" stroke-width="2" fill="none"></path><path id="SvgjsPath1043" d="M 0 0L 224.5 0L 224.5 30L 0 30Z" stroke="rgba(50,50,50,1)" stroke-width="2" fill-opacity="1" fill="#6ed464"></path><g id="SvgjsG1044"><text id="SvgjsText1045" font-family="Arial" text-anchor="start" font-size="13px" width="205px" fill="#323232" font-weight="400" align="middle" lineHeight="125%" anchor="start" family="Arial" size="13px" weight="400" font-style="" opacity="1" y="4.375" transform="rotate(0)"><tspan id="SvgjsTspan1046" dy="16" x="10"><tspan id="SvgjsTspan1047" style="text-decoration:;">reader:XmlBeanDefinitionReader</tspan></tspan></text></g></g><g id="SvgjsG1048"><path id="SvgjsPath1049" d="M134.99999167702416 138.26145890526712L257.49428372416173 138.26145890526712L257.49428372416173 135.84485575165664L376.3885757712993 135.84485575165664" stroke="#323232" stroke-width="2" fill="none" marker-end="url(#SvgjsMarker1050)"></path><rect id="SvgjsRect1052" width="189" height="16" x="162.40258530096696" y="130.26145890526712" fill="#ffffff"></rect><text id="SvgjsText1053" font-family="Arial" text-anchor="middle" font-size="13px" width="189px" fill="#323232" font-weight="400" align="top" lineHeight="16px" anchor="middle" family="Arial" size="13px" weight="400" font-style="" opacity="1" y="127.63645890526712" transform="rotate(0)"><tspan id="SvgjsTspan1054" dy="16" x="256.90258530096696"><tspan id="SvgjsTspan1055" style="text-decoration:;">1: loadBeanDefinitions(resource)</tspan></tspan></text></g><g id="SvgjsG1056" transform="translate(725.7499916770241,139.12499167702416)"><path id="SvgjsPath1057" d="M 0 4Q 0 0 4 0L 26 0Q 30 0 30 4L 30 55.875Q 30 59.875 26 59.875L 4 59.875Q 0 59.875 0 55.875L 0 4Z" stroke="rgba(50,50,50,1)" stroke-width="2" fill-opacity="1" fill="#6ed464"></path></g><g id="SvgjsG1058"><path id="SvgjsPath1059" d="M409.9999916770241 145.3853943820321L567.4772033065424 145.3853943820321L567.4772033065424 145.0125940262437L722.3544149360607 145.0125940262437" stroke="#323232" stroke-width="2" fill="none" marker-end="url(#SvgjsMarker1060)"></path><rect id="SvgjsRect1062" width="219" height="16" x="456.6772033065424" y="137.1989942041379" fill="#ffffff"></rect><text id="SvgjsText1063" font-family="Arial" text-anchor="middle" font-size="13px" width="219px" fill="#323232" font-weight="400" align="top" lineHeight="16px" anchor="middle" family="Arial" size="13px" weight="400" font-style="" opacity="1" y="134.5739942041379" transform="rotate(0)"><tspan id="SvgjsTspan1064" dy="16" x="566.1772033065424"><tspan id="SvgjsTspan1065" style="text-decoration:;">1.1: new EncodedResource(resource)</tspan></tspan></text></g><g id="SvgjsG1066"><path id="SvgjsPath1067" d="M724.8660170808085 195.1810850711016L567.4330043789164 195.1810850711016L567.4330043789164 198.32239604860885L412.59999167702415 198.32239604860885" stroke-dasharray="3,3" stroke="#323232" stroke-width="2" fill="none" marker-end="url(#SvgjsMarker1068)"></path><rect id="SvgjsRect1070" width="241" height="16" x="446.9330043789164" y="187.45174055985524" fill="#ffffff"></rect><text id="SvgjsText1071" font-family="Arial" text-anchor="middle" font-size="13px" width="241px" fill="#323232" font-weight="400" align="top" lineHeight="16px" anchor="middle" family="Arial" size="13px" weight="400" font-style="" opacity="1" y="184.82674055985524" transform="rotate(0)"><tspan id="SvgjsTspan1072" dy="16" x="567.4330043789164"><tspan id="SvgjsTspan1073" style="text-decoration:;">1.2: encodedResource:EncodedResource</tspan></tspan></text></g><g id="SvgjsG1074"><path id="SvgjsPath1075" d="M409.9999916770241 230.945346868281L453.42214333152276 230.945346868281L453.42214333152276 267.8757587622376L427.0221433315228 267.8757587622376" stroke="#323232" stroke-width="2" fill="none" marker-end="url(#SvgjsMarker1076)"></path><rect id="SvgjsRect1078" width="255" height="16" x="325.92214333152276" y="232.89947698800995" fill="#ffffff"></rect><text id="SvgjsText1079" font-family="Arial" text-anchor="middle" font-size="13px" width="255px" fill="#323232" font-weight="400" align="top" lineHeight="16px" anchor="middle" family="Arial" size="13px" weight="400" font-style="" opacity="1" y="230.27447698800995" transform="rotate(0)"><tspan id="SvgjsTspan1080" dy="16" x="453.42214333152276"><tspan id="SvgjsTspan1081" style="text-decoration:;">1.3: loadBeanDefinitions(encodedResource)</tspan></tspan></text></g><g id="SvgjsG1082" transform="translate(393.9999916770241,266.1249916770241)"><path id="SvgjsPath1083" d="M 0 4Q 0 0 4 0L 26 0Q 30 0 30 4L 30 401.875Q 30 405.875 26 405.875L 4 405.875Q 0 405.875 0 401.875L 0 4Z" stroke="rgba(50,50,50,1)" stroke-width="2" fill-opacity="1" fill="#6ed464"></path></g><g id="SvgjsG1084" transform="translate(725.7499916770241,280.9999916770241)"><path id="SvgjsPath1085" d="M 0 4Q 0 0 4 0L 26 0Q 30 0 30 4L 30 56Q 30 60 26 60L 4 60Q 0 60 0 56L 0 4Z" stroke="rgba(50,50,50,1)" stroke-width="2" fill-opacity="1" fill="#6ed464"></path></g><g id="SvgjsG1086"><path id="SvgjsPath1087" d="M424.9999916770241 285.073775549045L574.9829545901687 285.073775549045L574.9829545901687 284.75528310408566L722.3659175033132 284.75528310408566" stroke="#323232" stroke-width="2" fill="none" marker-end="url(#SvgjsMarker1088)"></path><rect id="SvgjsRect1090" width="119" height="16" x="514.1829545901687" y="276.91452932656534" fill="#ffffff"></rect><text id="SvgjsText1091" font-family="Arial" text-anchor="middle" font-size="13px" width="119px" fill="#323232" font-weight="400" align="top" lineHeight="16px" anchor="middle" family="Arial" size="13px" weight="400" font-style="" opacity="1" y="274.28952932656534" transform="rotate(0)"><tspan id="SvgjsTspan1092" dy="16" x="573.6829545901687"><tspan id="SvgjsTspan1093" style="text-decoration:;">1.3.1: getResource()</tspan></tspan></text></g><g id="SvgjsG1094"><path id="SvgjsPath1095" d="M724.9062994640608 336.57737341528343L574.9531455705425 336.57737341528343L574.9531455705425 338.0773667994531L427.59999167702415 338.0773667994531" stroke-dasharray="3,3" stroke="#323232" stroke-width="2" fill="none" marker-end="url(#SvgjsMarker1096)"></path><rect id="SvgjsRect1098" width="146" height="16" x="502.50314887845764" y="328.57737341528343" fill="#ffffff"></rect><text id="SvgjsText1099" font-family="Arial" text-anchor="middle" font-size="13px" width="146px" fill="#323232" font-weight="400" align="top" lineHeight="16px" anchor="middle" family="Arial" size="13px" weight="400" font-style="" opacity="1" y="325.95237341528343" transform="rotate(0)"><tspan id="SvgjsTspan1100" dy="16" x="575.5031488784576"><tspan id="SvgjsTspan1101" style="text-decoration:;">1.3.2: resource:Resource</tspan></tspan></text></g><g id="SvgjsG1102"><path id="SvgjsPath1103" d="M424.9999916770241 376.23995249974695L688.8126072510975 376.23995249974695L688.8126072510975 366.6904647239869L950.0252228251707 366.6904647239869" stroke="#323232" stroke-width="2" fill="none" marker-end="url(#SvgjsMarker1104)"></path><rect id="SvgjsRect1106" width="134" height="16" x="621.8126072510975" y="364.7652086118669" fill="#ffffff"></rect><text id="SvgjsText1107" font-family="Arial" text-anchor="middle" font-size="13px" width="134px" fill="#323232" font-weight="400" align="top" lineHeight="16px" anchor="middle" family="Arial" size="13px" weight="400" font-style="" opacity="1" y="362.1402086118669" transform="rotate(0)"><tspan id="SvgjsTspan1108" dy="16" x="688.8126072510975"><tspan id="SvgjsTspan1109" style="text-decoration:;">1.3.3: getInputStream()</tspan></tspan></text></g><g id="SvgjsG1110" transform="translate(953.2499916770241,362.9999916770241)"><path id="SvgjsPath1111" d="M 0 4Q 0 0 4 0L 26 0Q 30 0 30 4L 30 56Q 30 60 26 60L 4 60Q 0 60 0 56L 0 4Z" stroke="rgba(50,50,50,1)" stroke-width="2" fill-opacity="1" fill="#6ed464"></path></g><g id="SvgjsG1112"><path id="SvgjsPath1113" d="M952.9240304420852 418.1317507886895L688.9620110595547 418.1317507886895L688.9620110595547 412.2823945500245L427.59999167702415 412.2823945500245" stroke-dasharray="3,3" stroke="#323232" stroke-width="2" fill="none" marker-end="url(#SvgjsMarker1114)"></path><rect id="SvgjsRect1116" width="181" height="16" x="598.4620110595547" y="408.5070726693569" fill="#ffffff"></rect><text id="SvgjsText1117" font-family="Arial" text-anchor="middle" font-size="13px" width="181px" fill="#323232" font-weight="400" align="top" lineHeight="16px" anchor="middle" family="Arial" size="13px" weight="400" font-style="" opacity="1" y="405.8820726693569" transform="rotate(0)"><tspan id="SvgjsTspan1118" dy="16" x="688.9620110595547"><tspan id="SvgjsTspan1119" style="text-decoration:;">1.3.4: inputStream:InputStream</tspan></tspan></text></g><g id="SvgjsG1120"><path id="SvgjsPath1121" d="M424.9999916770241 454.685267550351L774.7990297827008 454.685267550351L774.7990297827008 446.11763873584755L1121.9980678883776 446.11763873584755" stroke="#323232" stroke-width="2" fill="none" marker-end="url(#SvgjsMarker1122)"></path><rect id="SvgjsRect1124" width="212" height="16" x="668.7990297827008" y="443.70145314309923" fill="#ffffff"></rect><text id="SvgjsText1125" font-family="Arial" text-anchor="middle" font-size="13px" width="212px" fill="#323232" font-weight="400" align="top" lineHeight="16px" anchor="middle" family="Arial" size="13px" weight="400" font-style="" opacity="1" y="441.07645314309923" transform="rotate(0)"><tspan id="SvgjsTspan1126" dy="16" x="774.7990297827008"><tspan id="SvgjsTspan1127" style="text-decoration:;">1.3.5: new InputSource(inputStream)</tspan></tspan></text></g><g id="SvgjsG1128" transform="translate(1124.9999916770241,441.9999916770241)"><path id="SvgjsPath1129" d="M 0 4Q 0 0 4 0L 26 0Q 30 0 30 4L 30 56Q 30 60 26 60L 4 60Q 0 60 0 56L 0 4Z" stroke="rgba(50,50,50,1)" stroke-width="2" fill-opacity="1" fill="#6ed464"></path></g><g id="SvgjsG1130"><path id="SvgjsPath1131" d="M1124.6984547809536 497.6351673045201L774.8492232289889 497.6351673045201L774.8492232289889 505.5687151507427L427.59999167702415 505.5687151507427" stroke-dasharray="3,3" stroke="#323232" stroke-width="2" fill="none" marker-end="url(#SvgjsMarker1132)"></path><rect id="SvgjsRect1134" width="179" height="16" x="685.3492232289889" y="492.3019412276314" fill="#ffffff"></rect><text id="SvgjsText1135" font-family="Arial" text-anchor="middle" font-size="13px" width="179px" fill="#323232" font-weight="400" align="top" lineHeight="16px" anchor="middle" family="Arial" size="13px" weight="400" font-style="" opacity="1" y="489.6769412276314" transform="rotate(0)"><tspan id="SvgjsTspan1136" dy="16" x="774.8492232289889"><tspan id="SvgjsTspan1137" style="text-decoration:;">1.3.6: inputSource:InputSource</tspan></tspan></text></g><g id="SvgjsG1138" transform="translate(409.7499916770241,556.9999916770241)"><path id="SvgjsPath1139" d="M 0 4Q 0 0 4 0L 26 0Q 30 0 30 4L 30 56Q 30 60 26 60L 4 60Q 0 60 0 56L 0 4Z" stroke="rgba(50,50,50,1)" stroke-width="2" fill-opacity="1" fill="#6ed464"></path></g><g id="SvgjsG1140"><path id="SvgjsPath1141" d="M424.9999916770241 515.9999916770241L468.9042314555792 515.9999916770241L468.9042314555792 558.6010335471001L442.5042314555792 558.6010335471001" stroke="#323232" stroke-width="2" fill="none" marker-end="url(#SvgjsMarker1142)"></path><rect id="SvgjsRect1144" width="444" height="16" x="246.90423145557912" y="520.5483927227845" fill="#ffffff"></rect><text id="SvgjsText1145" font-family="Arial" text-anchor="middle" font-size="13px" width="444px" fill="#323232" font-weight="400" align="top" lineHeight="16px" anchor="middle" family="Arial" size="13px" weight="400" font-style="" opacity="1" y="517.9233927227845" transform="rotate(0)"><tspan id="SvgjsTspan1146" dy="16" x="468.9042314555791"><tspan id="SvgjsTspan1147" style="text-decoration:;">1.3.7: doLoadBeanDefinitions(inputSource,encodedResource.getResource())</tspan></tspan></text></g><g id="SvgjsG1148"><path id="SvgjsPath1149" d="M439.7233834998682 615.0334438952491L468.7233834998682 615.0334438952491L468.7233834998682 654.9999916770241L427.59999167702415 654.9999916770241" stroke="#323232" stroke-width="2" fill="none" marker-end="url(#SvgjsMarker1150)"></path><rect id="SvgjsRect1152" width="205" height="16" x="366.2233834998682" y="633.0784136975587" fill="#ffffff"></rect><text id="SvgjsText1153" font-family="Arial" text-anchor="middle" font-size="13px" width="205px" fill="#323232" font-weight="400" align="top" lineHeight="16px" anchor="middle" family="Arial" size="13px" weight="400" font-style="" opacity="1" y="630.4534136975587" transform="rotate(0)"><tspan id="SvgjsTspan1154" dy="16" x="468.7233834998682"><tspan id="SvgjsTspan1155" style="text-decoration:;">1.3.8: loadedBeanDefinitionNum:int</tspan></tspan></text></g><g id="SvgjsG1156"><path id="SvgjsPath1157" d="M424.36168758844616 668.8528388043221L453.36168758844616 668.8528388043221L453.36168758844616 710.9999916770241L412.59999167702415 710.9999916770241" stroke="#323232" stroke-width="2" fill="none" marker-end="url(#SvgjsMarker1158)"></path><rect id="SvgjsRect1160" width="190" height="16" x="358.3616875884462" y="687.8072631963842" fill="#ffffff"></rect><text id="SvgjsText1161" font-family="Arial" text-anchor="middle" font-size="13px" width="190px" fill="#323232" font-weight="400" align="top" lineHeight="16px" anchor="middle" family="Arial" size="13px" weight="400" font-style="" opacity="1" y="685.1822631963842" transform="rotate(0)"><tspan id="SvgjsTspan1162" dy="16" x="453.3616875884462"><tspan id="SvgjsTspan1163" style="text-decoration:;">1.4 loadedBeanDefinitionNum:int</tspan></tspan></text></g><g id="SvgjsG1164"><path id="SvgjsPath1165" d="M379.6984547809537 749.965510569871L258.3492232289889 749.965510569871L258.3492232289889 749.965510569871L135.99999167702416 749.965510569871" stroke="#323232" stroke-width="2" fill="none" marker-end="url(#SvgjsMarker1166)"></path><rect id="SvgjsRect1168" width="183" height="16" x="166.34922322898893" y="741.965510569871" fill="#ffffff"></rect><text id="SvgjsText1169" font-family="Arial" text-anchor="middle" font-size="13px" width="183px" fill="#323232" font-weight="400" align="top" lineHeight="16px" anchor="middle" family="Arial" size="13px" weight="400" font-style="" opacity="1" y="739.340510569871" transform="rotate(0)"><tspan id="SvgjsTspan1170" dy="16" x="257.84922322898893"><tspan id="SvgjsTspan1171" style="text-decoration:;">2: loadedBeanDefinitionNum:int</tspan></tspan></text></g><g id="SvgjsG1172" transform="translate(426.9999916770241,24.99999167702415)"><path id="SvgjsPath1173" d="M 0 0L 268 0L 268 20L 0 20Z" stroke="none" fill="none"></path><g id="SvgjsG1174"><text id="SvgjsText1175" font-family="Arial" text-anchor="middle" font-size="13px" width="268px" fill="#323232" font-weight="700" align="middle" lineHeight="125%" anchor="middle" family="Arial" size="13px" weight="700" font-style="" opacity="1" y="-0.625" transform="rotate(0)"><tspan id="SvgjsTspan1176" dy="16" x="134"><tspan id="SvgjsTspan1177" style="text-decoration:;">LoadBeanDefinitions 函数执行时序图</tspan></tspan></text></g></g></svg>